<?xml version="1.0" encoding="UTF-8"?>
<svg version="1.1" xmlns="http://www.w3.org/2000/svg" width="500" height="500">
<path d="M0 0 C165 0 330 0 500 0 C500 165 500 330 500 500 C335 500 170 500 0 500 C0 335 0 170 0 0 Z " fill="#EFEFEF" transform="translate(0,0)"/>
<path d="M0 0 C1.07290283 0.20085205 1.07290283 0.20085205 2.16748047 0.40576172 C34.50938994 6.58073865 63.61925129 23.1331139 87 46 C87.7734375 46.7115625 88.546875 47.423125 89.34375 48.15625 C102.2599623 60.32369637 113.44594979 76.12139869 119.87109375 92.7109375 C122.67478689 100.94438334 122.67478689 100.94438334 128.8984375 106.265625 C132.14280905 106.6709283 132.14280905 106.6709283 135.49609375 106.7265625 C145.50319126 107.50749542 154.26082658 114.16974366 160.87890625 121.3203125 C169.01758424 131.60232558 174.42572883 145.03787714 174.25 158.1875 C174.24250732 158.93217529 174.23501465 159.67685059 174.22729492 160.4440918 C173.91293696 176.75031333 169.26408713 191.18386298 157.90234375 203.22265625 C151.32414156 209.42960188 144.58960801 213.81008601 135.45703125 214.5 C131.33465953 215.19208049 131.33465953 215.19208049 128.42675781 217.99658203 C127.24300439 220.67382206 126.36735682 223.31086878 125.5625 226.125 C124.96343705 227.98300086 124.36061843 229.83979533 123.75390625 231.6953125 C123.47305176 232.58895508 123.19219727 233.48259766 122.90283203 234.40332031 C121.60334187 238.140848 119.86577795 241.51448075 118 245 C114.12534823 243.19648807 111.32963188 240.73116607 108.3125 237.75 C107.81427734 237.28464844 107.31605469 236.81929687 106.80273438 236.33984375 C104.46031939 234.03239018 103.05858929 232.17370002 102.00390625 229.046875 C101.99903359 225.2461978 103.02180573 222.94331381 104.625 219.5 C107.4790593 212.98506241 109.27666381 206.43842021 110.8125 199.5 C111.01891113 198.56865234 111.22532227 197.63730469 111.43798828 196.67773438 C117.69188879 167.54537497 115.35482745 135.24214414 103 108 C102.70754395 107.34773438 102.41508789 106.69546875 102.11376953 106.0234375 C85.62200023 69.84456402 56.13349949 42.63633865 19.03125 28.46875 C-16.44490434 15.27874246 -57.57515521 16.18703302 -92.1796875 31.84765625 C-105.13651564 37.97438499 -117.09799182 45.69164086 -128 55 C-128.79664063 55.66257813 -129.59328125 56.32515625 -130.4140625 57.0078125 C-157.34657752 80.17832542 -173.51802372 114.06561131 -178 149 C-180.27542641 193.46653973 -169.50395956 232.9627181 -139.47558594 266.71337891 C-125.69349544 281.7012935 -109.14775397 292.0519549 -91 301 C-91.5648582 305.70715168 -92.47524303 309.42572908 -94 314 C-91.03 310.7 -88.06 307.4 -85 304 C-83.700625 304.4125 -82.40125 304.825 -81.0625 305.25 C-76.22214621 306.69796908 -71.34893794 307.94673053 -66.4375 309.125 C-65.39444702 309.38071777 -65.39444702 309.38071777 -64.33032227 309.64160156 C-36.40112704 316.22395377 -6.1021596 312.70323065 20.5703125 303.171875 C24 302 24 302 26 302 C25.87625 301.05125 25.7525 300.1025 25.625 299.125 C25.64767377 293.54725236 28.64162673 289.25729545 32 285 C36.07921208 281.01854681 39.89846601 279.70173272 45.5625 279.5 C51.79359015 279.81888013 55.8295955 281.18291716 60.6875 285.25 C65.12167435 290.52307219 67.80296286 294.62347426 67.4453125 301.59765625 C66.29168819 307.82115582 63.51200439 313.2779129 58.375 317.0625 C53.8240165 319.67510164 51.36432149 320.01191592 46.25 319.6875 C40.13047208 319.64032302 35.7093505 321.00432014 30.14038086 323.4375 C-0.33475476 336.62256685 -34.85518541 338.34908286 -67.15625 331.97265625 C-68.41586548 331.72757324 -68.41586548 331.72757324 -69.70092773 331.47753906 C-71.71071163 331.06008793 -73.70339981 330.56198291 -75.69140625 330.05078125 C-80.52440243 329.97660303 -82.81297023 332.13295681 -86.4375 335.125 C-87.12851807 335.66906494 -87.81953613 336.21312988 -88.53149414 336.77368164 C-90.7055481 338.4947564 -92.85446957 340.24354272 -95 342 C-96.33299652 343.07984299 -97.66632183 344.15928026 -99 345.23828125 C-100.97542414 346.84069754 -102.94805012 348.44615821 -104.91430664 350.05981445 C-110.52105758 354.65426394 -116.25597685 359.06479913 -122.02880859 363.44775391 C-127.42406975 367.54633248 -132.74304863 371.72469065 -138 376 C-139.3249884 373.3500232 -138.72471552 372.49971982 -137.83178711 369.71240234 C-137.55076645 368.82322113 -137.26974579 367.93403992 -136.98020935 367.01791382 C-136.6657637 366.05036163 -136.35131805 365.08280945 -136.02734375 364.0859375 C-135.70721817 363.08350006 -135.38709259 362.08106262 -135.05726624 361.04824829 C-134.37381543 358.91352064 -133.68672426 356.77995568 -132.99633789 354.64746094 C-131.95837972 351.43953119 -130.93228637 348.22800721 -129.90820312 345.015625 C-126.23619305 333.55601193 -122.38247135 322.20827659 -118 311 C-118.75901611 310.71261963 -119.51803223 310.42523926 -120.30004883 310.12915039 C-123.76337501 308.68074786 -126.6654175 306.62737876 -129.6875 304.4375 C-130.30181885 303.99567383 -130.9161377 303.55384766 -131.54907227 303.09863281 C-136.23547981 299.67500774 -140.58277599 295.98046963 -144.828125 292.01953125 C-146.73204605 290.24915862 -148.67891151 288.58614232 -150.6875 286.9375 C-171.2808395 269.25201631 -185.97723195 241.53078791 -194 216 C-195.01707031 215.87044922 -195.01707031 215.87044922 -196.0546875 215.73828125 C-209.10120501 213.76865464 -218.77893297 207.85500487 -227.0078125 197.46484375 C-236.65579022 183.28524013 -240.31028073 165.88847584 -237.68359375 148.9609375 C-234.47392117 133.81626883 -226.81619952 121.14746489 -214.01171875 112.2421875 C-208.0549061 108.56400027 -203.33470993 106.98542855 -196.3125 106.5625 C-192.95909572 106.25293233 -192.95909572 106.25293233 -190 105 C-187.01084861 101.03638525 -185.62328107 96.65611967 -184 92 C-176.46184569 75.30687278 -165.42188761 61.31960385 -153 48 C-152.26394531 47.19820312 -151.52789062 46.39640625 -150.76953125 45.5703125 C-112.87716726 5.83728091 -53.14268912 -10.49154271 0 0 Z " fill="#4E4E4E" transform="translate(284,70)"/>
<path d="M0 0 C7.05497211 3.25944 11.11783202 7.7407005 14.9453125 14.375 C17.29301595 22.20067815 16.75978346 29.3873601 13.3984375 36.83203125 C10.44023539 41.93928019 6.01653706 46.64293053 0.34375 48.68359375 C-8.03542419 50.31047809 -16.80030251 50.55308934 -24.06640625 45.66796875 C-30.74374467 40.1385166 -33.7872964 34.48315652 -35.31640625 25.97265625 C-35.89331528 18.88308531 -32.81839353 12.89242687 -28.9296875 7.125 C-26.47236418 4.68179923 -23.94408172 2.8213595 -20.9296875 1.125 C-20.32640625 0.75503906 -19.723125 0.38507813 -19.1015625 0.00390625 C-13.33061169 -2.33146053 -5.86288282 -1.75104767 0 0 Z " fill="#FEFEFE" transform="translate(194.9296875,211.875)"/>
<path d="M0 0 C6.61671106 3.80246057 10.58776377 8.95961873 13.5625 15.9375 C14.58048476 23.84293121 14.45181575 31.39186882 9.5625 37.9375 C5.67478706 42.43906235 1.24993058 46.04168981 -4.4375 47.9375 C-19.91082577 49.04533201 -19.91082577 49.04533201 -26.4375 43.9375 C-27.30375 43.40125 -28.17 42.865 -29.0625 42.3125 C-34.67214479 36.70285521 -36.76332004 30.69056158 -37 22.8125 C-36.61794249 13.98697147 -34.40532725 9.54080543 -28 3.5625 C-20.05885094 -3.3704684 -9.61830028 -4.4302474 0 0 Z " fill="#FEFEFE" transform="translate(263.4375,213.0625)"/>
<path d="M0 0 C1.16657173 0.71731751 2.31559067 1.46466347 3.4375 2.25 C4.324375 2.806875 5.21125 3.36375 6.125 3.9375 C11.75439155 9.56689155 13.77960526 14.68562025 14.0625 22.6875 C13.76578422 30.4801934 12.23973558 36.64352308 6.46484375 42.12109375 C4.50815586 43.6462131 2.57456869 44.99240093 0.4375 46.25 C-0.15417969 46.62382812 -0.74585938 46.99765625 -1.35546875 47.3828125 C-7.05911492 49.62389117 -15.11957061 49.05786847 -21.04296875 47.66796875 C-27.80900442 44.71036034 -33.15787777 38.46892595 -36.0625 31.8125 C-37.29328723 23.04314101 -37.25540759 15.58419985 -32.0859375 8.1171875 C-24.18283888 -1.66244595 -12.00947248 -5.74266995 0 0 Z " fill="#FEFEFE" transform="translate(329.5625,212.75)"/>
</svg>
